<?xml version="1.0" encoding="utf-8"?>
<!-- Svg Vector Icons : http://www.onlinewebfonts.com/icon -->
<!DOCTYPE svg PUBLIC "-//W3C//DTD SVG 1.1//EN" "http://www.w3.org/Graphics/SVG/1.1/DTD/svg11.dtd">
<svg version="1.1" xmlns="http://www.w3.org/2000/svg" xmlns:xlink="http://www.w3.org/1999/xlink" x="0px" y="0px" viewBox="0 0 1000 1000" enable-background="new 0 0 1000 1000" xml:space="preserve">
<metadata> Svg Vector Icons : http://www.onlinewebfonts.com/icon </metadata>
<g><path d="M16.4,432.1c0,51.2,38.9,93.8,91.3,106.2v361.5H46.9c-16.8,0-30.4,12.3-30.4,27.5c0,15.2,13.7,27.5,30.4,27.5h912.7c16.9,0,30.4-12.3,30.4-27.5c0-15.2-13.6-27.5-30.4-27.5h-60.9V538.3c52.4-12.3,91.3-55,91.3-106.2v-27.5H16.4V432.1L16.4,432.1z M396.2,541.3c60.9-6.1,107-52.6,107-109.2c0,60.8,54.5,110,121.7,110c67.3,0,121.7-49.3,121.7-110c0,51.2,38.9,93.8,91.3,106.2v361.5H396.8 M351.1,538.3v361.5H168.6V538.3c52.4-12.3,91.3-55,91.3-106.2C259.8,483.3,298.7,525.9,351.1,538.3 M868.3,142.4H138.1L10,362.4h973.6L868.3,142.4L868.3,142.4z M273.5,203.5l-60.9,110c-2.7,4.8-8.1,7.6-13.7,7.6c-2.3,0-4.6-0.4-6.8-1.4c-7.5-3.4-10.6-11.7-6.8-18.4l60.8-110c3.8-6.8,12.9-9.5,20.4-6.2C274.2,188.5,277.2,196.8,273.5,203.5 M395.2,203.5l-56.5,110c-2.7,4.8-8.1,7.6-13.7,7.6c-2.3,0-4.6-0.4-6.8-1.4c-7.5-3.4-10.6-11.7-6.8-18.4l56.5-110c3.8-6.8,12.9-9.5,20.4-6.2C395.9,188.5,398.9,196.8,395.2,203.5 M682.4,319.5c-2.4,1.2-4.9,1.7-7.4,1.7c-5.4,0-10.6-2.6-13.3-7.1l-55.9-110c-4-6.7-1.3-15.1,6.1-18.7c7.3-3.6,16.7-1.3,20.7,5.4l55.8,110C692.4,307.5,689.8,315.9,682.4,319.5 M814.2,319.8c-2.1,1-4.4,1.4-6.8,1.4c-5.6,0-10.9-2.8-13.5-7.6l-60.9-110c-3.8-6.8-0.7-15,6.8-18.4c7.4-3.4,16.6-0.7,20.4,6.2l60.9,110C824.8,308.1,821.9,316.4,814.2,319.8 M261.3,718.4v-57.3c-8.1-4.4-13.8-12-13.8-21.1c0-13.7,12.4-24.8,27.5-24.8c15.2,0,27.5,11.1,27.5,24.8c0,9.1-5.6,16.7-13.8,21.1v57.3c8.1,4.4,13.8,11.9,13.8,21.1c0,13.7-12.2,24.8-27.5,24.8c-15.1,0-27.5-11.1-27.5-24.8C247.6,730.4,253.3,722.8,261.3,718.4 M138.1,72.7c0-15.2,13.7-27.5,30.4-27.5h669.3c16.9,0,30.4,12.3,30.4,27.5c0,15.2-13.5,27.5-30.4,27.5H168.5C151.8,100.3,138.1,87.9,138.1,72.7L138.1,72.7z"/></g>
</svg>